<svg xmlns="http://www.w3.org/2000/svg" version="1.1" x="0" y="0" height="96" width="24" viewBox="-587 -17 24 96" enable-background="new -587 -17 24 96" xml:space="preserve"><path fill="#999999" d="M-571.7-9.4l3.5-7.6h-13.7l3.5 7.7c-3 1.3-5.1 4.3-5.1 7.8 0 4.7 3.8 8.5 8.5 8.5 4.7 0 8.5-3.8 8.5-8.5C-566.5-5-568.6-8.1-571.7-9.4zM-579.5-15.5h3.7l2.6 5.6c-0.6-0.1-1.1-0.2-1.7-0.2 -0.7 0-1.3 0.1-2 0.2 0 0 0-0.1 0-0.1L-579.5-15.5zM-572.8 0.8c0.1 0 0.2 0.1 0.2 0.2v0.9c0 0.1-0.1 0.2-0.2 0.2h-4.8V1.4c0-1.4 0.4-2.3 2.2-3.1 1-0.4 1.4-0.7 1.4-1.2 0-0.6-0.3-0.9-0.9-0.9 -0.6 0-1.1 0.3-1.2 0.9 -0.1 0.2-0.1 0.2-0.2 0.2 0 0 0 0-0.1 0l-0.8-0.3c-0.1 0-0.2-0.1-0.1-0.3 0.4-1.1 1.3-1.7 2.5-1.7 2 0 2.4 1.2 2.4 2.1 0 1-0.6 1.7-2.1 2.3 -0.9 0.4-1.4 0.6-1.4 1.4v0.1H-572.8zM-574.1-15.5h3.6l-1.8 4L-574.1-15.5z"/><path fill="#666666" d="M-571.7 14.6l3.5-7.6h-13.7l3.5 7.7c-3 1.3-5.1 4.3-5.1 7.8 0 4.7 3.8 8.5 8.5 8.5 4.7 0 8.5-3.8 8.5-8.5C-566.5 19-568.6 15.9-571.7 14.6zM-579.5 8.5h3.7l2.6 5.6c-0.6-0.1-1.1-0.2-1.7-0.2 -0.7 0-1.3 0.1-2 0.2 0 0 0-0.1 0-0.1L-579.5 8.5zM-572.8 24.8c0.1 0 0.2 0.1 0.2 0.2v0.9c0 0.1-0.1 0.2-0.2 0.2h-4.8v-0.7c0-1.4 0.4-2.3 2.2-3.1 1-0.4 1.4-0.7 1.4-1.2 0-0.6-0.3-0.9-0.9-0.9 -0.6 0-1.1 0.3-1.2 0.9 -0.1 0.2-0.1 0.2-0.2 0.2 0 0 0 0-0.1 0l-0.8-0.3c-0.1 0-0.2-0.1-0.1-0.3 0.4-1.1 1.3-1.7 2.5-1.7 2 0 2.4 1.2 2.4 2.1 0 1-0.6 1.7-2.1 2.3 -0.9 0.4-1.4 0.6-1.4 1.4v0.1H-572.8zM-574.1 8.5h3.6l-1.8 4L-574.1 8.5z"/><path fill="#FFFFFF" d="M-571.7 38.6l3.5-7.6h-13.7l3.5 7.7c-3 1.3-5.1 4.3-5.1 7.8 0 4.7 3.8 8.5 8.5 8.5 4.7 0 8.5-3.8 8.5-8.5C-566.5 43-568.6 39.9-571.7 38.6zM-579.5 32.5h3.7l2.6 5.6c-0.6-0.1-1.1-0.2-1.7-0.2 -0.7 0-1.3 0.1-2 0.2 0 0 0-0.1 0-0.1L-579.5 32.5zM-572.8 48.8c0.1 0 0.2 0.1 0.2 0.2v0.9c0 0.1-0.1 0.2-0.2 0.2h-4.8v-0.7c0-1.4 0.4-2.3 2.2-3.1 1-0.4 1.4-0.7 1.4-1.2 0-0.6-0.3-0.9-0.9-0.9 -0.6 0-1.1 0.3-1.2 0.9 -0.1 0.2-0.1 0.2-0.2 0.2 0 0 0 0-0.1 0l-0.8-0.3c-0.1 0-0.2-0.1-0.1-0.3 0.4-1.1 1.3-1.7 2.5-1.7 2 0 2.4 1.2 2.4 2.1 0 1-0.6 1.7-2.1 2.3 -0.9 0.4-1.4 0.6-1.4 1.4v0.1H-572.8zM-574.1 32.5h3.6l-1.8 4L-574.1 32.5z"/></svg>
