<svg xmlns="http://www.w3.org/2000/svg" version="1.1" x="0" y="0" height="96" width="24" viewBox="-587 -17 24 96" enable-background="new -587 -17 24 96" xml:space="preserve"><path fill="#E5820A" d="M-571.7-9.4l3.5-7.6h-13.7l3.5 7.7c-3 1.3-5.1 4.3-5.1 7.8 0 4.7 3.8 8.5 8.5 8.5 4.7 0 8.5-3.8 8.5-8.5C-566.5-5-568.6-8.1-571.7-9.4zM-579.5-15.5h3.7l2.6 5.6c-0.6-0.1-1.1-0.2-1.7-0.2 -0.7 0-1.3 0.1-2 0.2 0 0 0-0.1 0-0.1L-579.5-15.5zM-572.6 0.1c0 1.4-1.3 2.1-2.5 2.1 -0.8 0-2.1-0.2-2.5-1.7 0-0.1 0-0.2 0.1-0.3l0.7-0.3c0.2-0.1 0.3 0 0.4 0.2 0.2 0.6 0.6 0.8 1.3 0.8 0.7 0 1.1-0.4 1.1-0.9v0c0-0.6-0.4-1-1.1-1h-0.5c-0.1 0-0.1 0-0.1-0.1V-2c0 0 0-0.1 0.1-0.1h0.5c0.6 0 1-0.3 1-0.8v-0.1c0-0.2-0.1-0.8-1-0.8 -0.6 0-1 0.2-1.2 0.7 0 0.1-0.1 0.2-0.3 0.1l-0.8-0.3c-0.1 0-0.2-0.1-0.1-0.3 0.3-1 1.2-1.6 2.4-1.6 1.5 0 2.4 0.7 2.4 2V-3c0 0.7-0.4 1.2-1 1.5 0.5 0.2 1.1 0.7 1.1 1.5V0.1zM-574.1-15.5h3.6l-1.8 4L-574.1-15.5z"/><path fill="#666666" d="M-571.7 14.6l3.5-7.6h-13.7l3.5 7.7c-3 1.3-5.1 4.3-5.1 7.8 0 4.7 3.8 8.5 8.5 8.5 4.7 0 8.5-3.8 8.5-8.5C-566.5 19-568.6 15.9-571.7 14.6zM-579.5 8.5h3.7l2.6 5.6c-0.6-0.1-1.1-0.2-1.7-0.2 -0.7 0-1.3 0.1-2 0.2 0 0 0-0.1 0-0.1L-579.5 8.5zM-572.6 24.1c0 1.4-1.3 2.1-2.5 2.1 -0.8 0-2.1-0.2-2.5-1.7 0-0.1 0-0.2 0.1-0.3l0.7-0.3c0.2-0.1 0.3 0 0.4 0.2 0.2 0.6 0.6 0.8 1.3 0.8 0.7 0 1.1-0.4 1.1-0.9v0c0-0.6-0.4-1-1.1-1h-0.5c-0.1 0-0.1 0-0.1-0.1V22c0 0 0-0.1 0.1-0.1h0.5c0.6 0 1-0.3 1-0.8v-0.1c0-0.2-0.1-0.8-1-0.8 -0.6 0-1 0.2-1.2 0.7 0 0.1-0.1 0.2-0.3 0.1l-0.8-0.3c-0.1 0-0.2-0.1-0.1-0.3 0.3-1 1.2-1.6 2.4-1.6 1.5 0 2.4 0.7 2.4 2V21c0 0.7-0.4 1.2-1 1.5 0.5 0.2 1.1 0.7 1.1 1.5V24.1zM-574.1 8.5h3.6l-1.8 4L-574.1 8.5z"/><path fill="#FFFFFF" d="M-571.7 38.6l3.5-7.6h-13.7l3.5 7.7c-3 1.3-5.1 4.3-5.1 7.8 0 4.7 3.8 8.5 8.5 8.5 4.7 0 8.5-3.8 8.5-8.5C-566.5 43-568.6 39.9-571.7 38.6zM-579.5 32.5h3.7l2.6 5.6c-0.6-0.1-1.1-0.2-1.7-0.2 -0.7 0-1.3 0.1-2 0.2 0 0 0-0.1 0-0.1L-579.5 32.5zM-572.6 48.1c0 1.4-1.3 2.1-2.5 2.1 -0.8 0-2.1-0.2-2.5-1.7 0-0.1 0-0.2 0.1-0.3l0.7-0.3c0.2-0.1 0.3 0 0.4 0.2 0.2 0.6 0.6 0.8 1.3 0.8 0.7 0 1.1-0.4 1.1-0.9v0c0-0.6-0.4-1-1.1-1h-0.5c-0.1 0-0.1 0-0.1-0.1V46c0 0 0-0.1 0.1-0.1h0.5c0.6 0 1-0.3 1-0.8v-0.1c0-0.2-0.1-0.8-1-0.8 -0.6 0-1 0.2-1.2 0.7 0 0.1-0.1 0.2-0.3 0.1l-0.8-0.3c-0.1 0-0.2-0.1-0.1-0.3 0.3-1 1.2-1.6 2.4-1.6 1.5 0 2.4 0.7 2.4 2V45c0 0.7-0.4 1.2-1 1.5 0.5 0.2 1.1 0.7 1.1 1.5V48.1zM-574.1 32.5h3.6l-1.8 4L-574.1 32.5z"/></svg>
