<svg xmlns="http://www.w3.org/2000/svg" version="1.1" x="0" y="0" height="96" width="24" viewBox="0 0 24 96" enable-background="new 0 0 24 96" xml:space="preserve"><path fill="#FEC835" d="M20.4 3.7c0 2-1.6 3.6-3.6 3.6s-3.6-1.6-3.6-3.6h-2.3c0 2-1.6 3.6-3.6 3.6S3.7 5.7 3.7 3.7H1.4L2.9 17h18.2l1.6-13.3H20.4zM12.1 14.4l-2.6-2.6 2.6-2.6 2.6 2.6L12.1 14.4zM18.3 13.2l-1.5-1.5 1.5-1.5 1.5 1.5L18.3 13.2zM5.9 13.2l-1.5-1.5 1.5-1.5 1.5 1.5L5.9 13.2z"/><path fill="#666666" d="M20.4 27.7c0 2-1.6 3.6-3.6 3.6s-3.6-1.6-3.6-3.6h-2.3c0 2-1.6 3.6-3.6 3.6s-3.6-1.6-3.6-3.6H1.4L2.9 41h18.2l1.6-13.3H20.4zM12.1 38.4l-2.6-2.6 2.6-2.6 2.6 2.6L12.1 38.4zM18.3 37.2l-1.5-1.5 1.5-1.5 1.5 1.5L18.3 37.2zM5.9 37.2l-1.5-1.5 1.5-1.5 1.5 1.5L5.9 37.2z"/><path fill="#FFFFFF" d="M20.4 51.7c0 2-1.6 3.6-3.6 3.6s-3.6-1.6-3.6-3.6h-2.3c0 2-1.6 3.6-3.6 3.6s-3.6-1.6-3.6-3.6H1.4L2.9 65h18.2l1.6-13.3H20.4zM12.1 62.4l-2.6-2.6 2.6-2.6 2.6 2.6L12.1 62.4zM18.3 61.2l-1.5-1.5 1.5-1.5 1.5 1.5L18.3 61.2zM5.9 61.2l-1.5-1.5 1.5-1.5 1.5 1.5L5.9 61.2z"/></svg>
